<?xml version="1.0" encoding="UTF-8" standalone="no"?>
<!-- Created with Inkscape (http://www.inkscape.org/) -->

<svg
   width="64"
   height="64"
   viewBox="0 0 64 64"
   version="1.1"
   id="svg1"
   inkscape:version="1.3.2 (091e20e, 2023-11-25, custom)"
   sodipodi:docname="[Inkscape 1.2+] Arrow.svg"
   xmlns:inkscape="http://www.inkscape.org/namespaces/inkscape"
   xmlns:sodipodi="http://sodipodi.sourceforge.net/DTD/sodipodi-0.dtd"
   xmlns:xlink="http://www.w3.org/1999/xlink"
   xmlns="http://www.w3.org/2000/svg"
   xmlns:svg="http://www.w3.org/2000/svg">
  <sodipodi:namedview
     id="namedview1"
     pagecolor="#808080"
     bordercolor="#000000"
     borderopacity="0.25"
     inkscape:showpageshadow="false"
     inkscape:pageopacity="0.0"
     inkscape:pagecheckerboard="true"
     inkscape:deskcolor="#404040"
     inkscape:document-units="px"
     showgrid="false"
     inkscape:zoom="5.6568545"
     inkscape:cx="26.781668"
     inkscape:cy="38.360541"
     inkscape:window-width="1920"
     inkscape:window-height="986"
     inkscape:window-x="-11"
     inkscape:window-y="-11"
     inkscape:window-maximized="1"
     inkscape:current-layer="Outline"
     showguides="false"
     inkscape:lockguides="true">
    <inkscape:grid
       id="Main Grid"
       units="px"
       originx="0"
       originy="0"
       spacingx="1"
       spacingy="1"
       empcolor="#0099e5"
       empopacity="0.30196078"
       color="#0099e5"
       opacity="0.14901961"
       empspacing="4"
       dotted="false"
       gridanglex="30"
       gridanglez="30"
       visible="false" />
    <sodipodi:guide
       position="32,32"
       orientation="0,-1"
       id="Center X"
       inkscape:locked="true" />
    <sodipodi:guide
       position="32,32"
       orientation="1,0"
       id="Center Y"
       inkscape:locked="true" />
    <sodipodi:guide
       position="36.2426406871,61.2426406871"
       orientation="-0.70710678,-0.70710678"
       id="[UR.1] Shadow"
       inkscape:locked="true" />
    <sodipodi:guide
       position="35.5355339059,60.5355339059"
       orientation="-0.70710678,-0.70710678"
       id="[UR.2] Outline"
       inkscape:locked="true" />
    <sodipodi:guide
       position="34.8284271247,59.8284271247"
       orientation="-0.70710678,-0.70710678"
       id="[UR.3] Fill"
       inkscape:locked="true" />
    <sodipodi:guide
       position="33.41421356237,58.41421356237"
       orientation="-0.70710678,-0.70710678"
       id="[UR.4] Inner"
       inkscape:locked="true" />
    <sodipodi:guide
       position="61.2426406871,27.7573593129"
       orientation="0.70710678,-0.70710678"
       id="[LR.1] Shadow"
       inkscape:locked="true" />
    <sodipodi:guide
       position="60.5355339059,28.4644660941"
       orientation="0.70710678,-0.70710678"
       id="[LR.2] Outline"
       inkscape:locked="true" />
    <sodipodi:guide
       position="59.8284271247,29.1715728753"
       orientation="0.70710678,-0.70710678"
       id="[LR.3] Fill"
       inkscape:locked="true" />
    <sodipodi:guide
       position="58.4142135624,30.58578643763"
       orientation="0.70710678,-0.70710678"
       id="[LR.4] Inner"
       inkscape:locked="true" />
    <sodipodi:guide
       position="27.7573593129,2.7573593129"
       orientation="-0.70710678,-0.70710678"
       id="[LL.1] Shadow"
       inkscape:locked="true" />
    <sodipodi:guide
       position="28.4644660941,3.4644660941"
       orientation="-0.70710678,-0.70710678"
       id="[LL.2] Outline"
       inkscape:locked="true" />
    <sodipodi:guide
       position="29.1715728753,4.1715728753"
       orientation="-0.70710678,-0.70710678"
       id="[LL.3] Fill"
       inkscape:locked="true" />
    <sodipodi:guide
       position="30.58578643763,5.58578643763"
       orientation="-0.70710678,-0.70710678"
       id="[LL.4] Inner"
       inkscape:locked="true" />
    <sodipodi:guide
       position="2.7573593129,36.2426406871"
       orientation="0.70710678,-0.70710678"
       id="[UL.1] Shadow"
       inkscape:locked="true" />
    <sodipodi:guide
       position="3.4644660941,35.5355339059"
       orientation="0.70710678,-0.70710678"
       id="[UL.2] Outline"
       inkscape:locked="true" />
    <sodipodi:guide
       position="4.1715728753,34.8284271247"
       orientation="0.70710678,-0.70710678"
       id="[UL.3] Fill"
       inkscape:locked="true" />
    <sodipodi:guide
       position="5.58578643763,33.41421356237"
       orientation="0.70710678,-0.70710678"
       id="[UL. 4] Inner"
       inkscape:locked="true" />
    <sodipodi:guide
       position="42,64"
       orientation="1,0"
       id="[R] Shadow"
       inkscape:locked="true" />
    <sodipodi:guide
       position="41,64"
       orientation="1,0"
       id="[R] Outline"
       inkscape:locked="true" />
    <sodipodi:guide
       position="40,64"
       orientation="1,0"
       id="[R] Fill"
       inkscape:locked="true" />
    <sodipodi:guide
       position="38,64"
       orientation="1,0"
       id="[R] Inner"
       inkscape:locked="true" />
    <sodipodi:guide
       position="22,64"
       orientation="1,0"
       id="[L] Shadow"
       inkscape:locked="true" />
    <sodipodi:guide
       position="23,64"
       orientation="1,0"
       id="[L] Outline"
       inkscape:locked="true" />
    <sodipodi:guide
       position="24,64"
       orientation="1,0"
       id="[L] Fill"
       inkscape:locked="true" />
    <sodipodi:guide
       position="26,64"
       orientation="1,0"
       id="[L] Inner"
       inkscape:locked="true" />
    <sodipodi:guide
       position="51.3431457505,46.1421356237"
       orientation="0.70710678,-0.70710678"
       id="[R] Side Shadow"
       inkscape:locked="true" />
    <sodipodi:guide
       position="51.3431457505,44.7279220614"
       orientation="0.70710678,-0.70710678"
       id="[R] Side Outline"
       inkscape:locked="true" />
    <sodipodi:guide
       position="51.3431457505,43.3137084990"
       orientation="0.70710678,-0.70710678"
       id="[R] Side Fill"
       inkscape:locked="true" />
    <sodipodi:guide
       position="51.3431457505,40.4852813742"
       orientation="0.70710678,-0.70710678"
       id="[R] SIde Inner"
       inkscape:locked="true" />
    <sodipodi:guide
       position="12.6568542495,46.1421356237"
       orientation="-0.70710678,-0.70710678"
       id="[L] Side Shadow"
       inkscape:locked="true" />
    <sodipodi:guide
       position="12.6568542495,44.7279220614"
       orientation="-0.70710678,-0.70710678"
       id="[L] Side Outline"
       inkscape:locked="true" />
    <sodipodi:guide
       position="12.6568542495,43.3137084990"
       orientation="-0.70710678,-0.70710678"
       id="[L} Side Fill"
       inkscape:locked="true" />
    <sodipodi:guide
       position="12.6568542495,40.4852813742"
       orientation="-0.70710678,-0.70710678"
       id="[L] Side Inner"
       inkscape:locked="true" />
  </sodipodi:namedview>
  <defs
     id="defs1">
    <linearGradient
       id="linearGradient2"
       inkscape:collect="always"
       inkscape:label="Outline Gradient">
      <stop
         style="stop-color:#808080;stop-opacity:1;"
         offset="0"
         id="stop3" />
      <stop
         style="stop-color:#000000;stop-opacity:1;"
         offset="1"
         id="stop4" />
    </linearGradient>
    <linearGradient
       id="linearGradient1"
       inkscape:collect="always"
       inkscape:label="Fill Gradient">
      <stop
         style="stop-color:#ffffff;stop-opacity:1;"
         offset="0"
         id="stop1" />
      <stop
         style="stop-color:#808080;stop-opacity:1;"
         offset="1"
         id="stop2" />
    </linearGradient>
    <inkscape:path-effect
       effect="fillet_chamfer"
       id="path-effect3"
       is_visible="true"
       lpeversion="1"
       nodesatellites_param="F,0,0,1,0,5,0,1 @ F,0,0,1,0,2.0710688,0,1 @ F,0,0,1,0,0,0,1 @ F,0,0,1,0,5,0,1 @ F,0,0,1,0,5,0,1 @ F,0,0,1,0,5,0,1 @ F,0,0,1,0,5,0,1 @ F,0,0,1,0,5,0,1 @ F,0,0,1,0,0,0,1 @ F,0,0,1,0,2.0710688,0,1 | F,0,1,1,0,0.828428,0,1 @ F,0,0,1,0,0,0,1 @ F,0,0,1,0,2,0,1 @ F,0,0,1,0,2,0,1 @ F,0,0,1,0,2,0,1 @ F,0,0,1,0,2,0,1 @ F,0,0,1,0,2,0,1 @ F,0,0,1,0,0,0,1 @ F,0,1,1,0,0.828428,0,1 @ F,0,0,1,0,2,0,1"
       radius="0"
       unit="px"
       method="auto"
       mode="F"
       chamfer_steps="1"
       flexible="false"
       use_knot_distance="true"
       apply_no_radius="true"
       apply_with_radius="true"
       only_selected="true"
       hide_knots="false" />
    <inkscape:path-effect
       effect="fillet_chamfer"
       id="path-effect2"
       is_visible="true"
       lpeversion="1"
       nodesatellites_param="F,0,0,1,0,4,0,1 @ F,0,1,1,0,1.6568552,0,1 @ F,0,0,1,0,0,0,1 @ F,0,0,1,0,4,0,1 @ F,0,0,1,0,4,0,1 @ F,0,0,1,0,4,0,1 @ F,0,0,1,0,4,0,1 @ F,0,0,1,0,4,0,1 @ F,0,0,1,0,0,0,1 @ F,0,1,1,0,1.6568552,0,1"
       radius="0"
       unit="px"
       method="auto"
       mode="F"
       chamfer_steps="1"
       flexible="false"
       use_knot_distance="true"
       apply_no_radius="true"
       apply_with_radius="true"
       only_selected="false"
       hide_knots="false" />
    <inkscape:path-effect
       effect="fillet_chamfer"
       id="path-effect1"
       is_visible="true"
       lpeversion="1"
       nodesatellites_param="F,0,0,1,0,6,0,1 @ F,0,0,1,0,2.4852824,0,1 @ F,0,0,1,0,0,0,1 @ F,0,0,1,0,6,0,1 @ F,0,0,1,0,6,0,1 @ F,0,0,1,0,6,0,1 @ F,0,0,1,0,6,0,1 @ F,0,0,1,0,6,0,1 @ F,0,0,1,0,0,0,1 @ F,0,0,1,0,2.4852824,0,1 | F,0,1,1,0,1.6568552,0,1 @ F,0,0,1,0,0,0,1 @ F,0,0,1,0,4,0,1 @ F,0,0,1,0,4,0,1 @ F,0,0,1,0,4,0,1 @ F,0,0,1,0,4,0,1 @ F,0,0,1,0,4,0,1 @ F,0,0,1,0,0,0,1 @ F,0,1,1,0,1.6568552,0,1 @ F,0,0,1,0,4,0,1"
       radius="0"
       unit="px"
       method="auto"
       mode="F"
       chamfer_steps="1"
       flexible="false"
       use_knot_distance="true"
       apply_no_radius="true"
       apply_with_radius="true"
       only_selected="true"
       hide_knots="false" />
    <radialGradient
       inkscape:collect="always"
       xlink:href="#linearGradient1"
       id="radialGradient2"
       cx="32"
       cy="59"
       fx="32"
       fy="59"
       r="54"
       gradientUnits="userSpaceOnUse" />
    <radialGradient
       inkscape:collect="always"
       xlink:href="#linearGradient2"
       id="radialGradient4"
       cx="32"
       cy="59"
       fx="32"
       fy="59"
       r="54"
       gradientUnits="userSpaceOnUse" />
  </defs>
  <g
     inkscape:label="Shadow"
     inkscape:groupmode="layer"
     id="Shadow"
     inkscape:highlight-color="#808080"
     style="display:inline">
    <path
       style="display:inline;fill:#000000;fill-opacity:0.25;stroke-width:16;stroke-miterlimit:2"
       d="M 36.242641,2.7573593 40.24264,6.7573586 A 6.0000025,6.0000025 67.5 0 1 42,11.000001 V 27.20101 l 5.100505,-5.100505 a 5.9999998,5.9999998 1.0128559e-6 0 1 8.485282,0 l 5.656853,5.656854 a 6.0000002,6.0000002 90.000001 0 1 0,8.485282 L 36.242641,61.24264 a 6,6 180 0 1 -8.485282,0 L 2.7573593,36.242641 a 6.0000001,6.0000001 89.999999 0 1 -1e-7,-8.485282 l 5.6568542,-5.656854 a 5.9999999,5.9999999 180 0 1 8.4852816,0 L 22,27.20101 V 11.000001 a 6.0000025,6.0000025 112.5 0 1 1.75736,-4.2426424 l 3.999999,-3.9999993 a 6,6 0 0 1 8.485282,0 z M 24,11.000001 v 21.029436 l -8.514719,-8.514718 a 4.0000002,4.0000002 180 0 0 -5.6568541,0 l -5.656854,5.656854 a 4,4 90 0 0 0,5.656854 l 25.0000001,25 a 4,4 180 0 0 5.656854,0 l 25,-25 a 4,4 90 0 0 0,-5.656854 l -5.656854,-5.656854 a 4.0000002,4.0000002 1.2627842e-6 0 0 -5.656854,0 L 40,32.029437 V 11.000001 A 4.0000023,4.0000023 67.5 0 0 38.828426,8.1715723 L 34.828427,4.1715729 a 4,4 0 0 0 -5.656854,0 L 25.171574,8.1715723 A 4.0000023,4.0000023 112.5 0 0 24,11.000001 Z"
       id="Shadow Path"
       sodipodi:nodetypes="cccccccccccccccccccccc"
       inkscape:label="Shadow Path"
       inkscape:path-effect="#path-effect1"
       inkscape:original-d="m 32,-1.4852814 10,10 V 27.20101 L 51.343146,17.857864 65.485281,32 32,65.485281 -1.4852814,32 12.656854,17.857864 22,27.20101 V 8.5147186 Z M 24,9.3431458 V 32.029437 L 12.656854,20.686292 1.3431458,32 32,62.656854 62.656854,32 51.343146,20.686292 40,32.029437 V 9.3431458 l -8,-8 z" />
  </g>
  <g
     inkscape:groupmode="layer"
     id="Fill"
     inkscape:label="Fill"
     inkscape:highlight-color="#47a4d7"
     style="display:inline">
    <path
       style="fill:url(#radialGradient2);fill-opacity:1;stroke-width:16;stroke-miterlimit:2"
       d="m 34.828427,4.1715729 3.999999,3.9999994 A 4.0000023,4.0000023 67.5 0 1 40,11.000001 v 21.029436 l 8.514719,-8.514718 a 4.0000002,4.0000002 1.2627842e-6 0 1 5.656854,0 l 5.656854,5.656854 a 4,4 90 0 1 0,5.656854 l -25,25 a 4,4 180 0 1 -5.656854,0 l -25.0000001,-25 a 4,4 90 0 1 0,-5.656854 l 5.656854,-5.656854 a 4.0000002,4.0000002 180 0 1 5.6568541,0 L 24,32.029437 V 11.000001 a 4.0000023,4.0000023 112.5 0 1 1.171574,-2.8284287 l 3.999999,-3.9999994 a 4,4 0 0 1 5.656854,0 z"
       id="Fill Path"
       inkscape:label="Fill Path"
       inkscape:path-effect="#path-effect2"
       inkscape:original-d="m 32,1.3431458 8,8 V 32.029437 L 51.343146,20.686292 62.656854,32 32,62.656854 1.3431458,32 12.656854,20.686292 24,32.029437 V 9.3431458 Z" />
  </g>
  <g
     inkscape:groupmode="layer"
     id="Outline"
     inkscape:label="Outline"
     inkscape:highlight-color="#ffffff"
     style="display:inline">
    <path
       style="display:inline;fill:url(#radialGradient4);fill-opacity:1;stroke-width:16;stroke-miterlimit:2"
       d="m 35.535534,3.4644661 3.999999,3.9999993 A 5.0000024,5.0000024 67.5 0 1 41,11.000001 l 0,18.615223 6.807612,-6.807612 a 5,5 0 0 1 7.071068,0 l 5.656854,5.656854 a 5,5 90 0 1 0,7.071068 l -25,25 a 5,5 8.4859921e-8 0 1 -7.071068,0 l -24.9999999,-25 a 5.0000001,5.0000001 90 0 1 0,-7.071068 l 5.656854,-5.656854 a 5,5 180 0 1 7.0710679,0 L 23,29.615224 V 11.000001 a 5.0000024,5.0000024 112.5 0 1 1.464467,-3.5355356 l 3.999999,-3.9999993 a 5,5 0 0 1 7.071068,0 z M 26,11.000001 V 36.857864 L 14.071068,24.928933 a 2.0000001,2.0000001 180 0 0 -2.828428,0 l -5.6568535,5.656853 a 2,2 90 0 0 0,2.828428 L 30.585786,58.414213 a 2,2 180 0 0 2.828428,0 L 58.414213,33.414214 a 2,2 90 0 0 0,-2.828428 L 52.75736,24.928933 a 2.0000001,2.0000001 1.0735059e-6 0 0 -2.828428,0 L 38,36.857864 V 11.000001 A 2.0000021,2.0000021 67.5 0 0 37.414213,9.5857859 L 33.414214,5.5857865 a 2,2 0 0 0 -2.828428,0 L 26.585787,9.5857859 A 2.0000021,2.0000021 112.5 0 0 26,11.000001 Z"
       id="Outline Path"
       sodipodi:nodetypes="cccccccccccccccccccccc"
       inkscape:label="Outline Path"
       inkscape:path-effect="#path-effect3"
       inkscape:original-d="M 32,-0.07106781 41,8.9289322 V 29.615224 L 51.343146,19.272078 64.071068,32 32,64.071068 -0.07106781,32 12.656854,19.272078 23,29.615224 V 8.9289322 Z M 26,10.171573 V 36.857864 L 12.656854,23.514719 4.1715729,32 32,59.828427 59.828427,32 51.343146,23.514719 38,36.857864 V 10.171573 L 32,4.1715729 Z" />
  </g>
</svg>
