<?xml version="1.0" encoding="UTF-8" standalone="no"?>
<!-- Created with Inkscape (http://www.inkscape.org/) -->

<svg
   width="64"
   height="64"
   viewBox="0 0 64 64.000003"
   version="1.1"
   id="svg1"
   inkscape:version="1.3.2 (091e20e, 2023-11-25, custom)"
   sodipodi:docname="[Inkscape 1.2+] Arrow.svg"
   xmlns:inkscape="http://www.inkscape.org/namespaces/inkscape"
   xmlns:sodipodi="http://sodipodi.sourceforge.net/DTD/sodipodi-0.dtd"
   xmlns="http://www.w3.org/2000/svg"
   xmlns:svg="http://www.w3.org/2000/svg">
  <sodipodi:namedview
     id="namedview1"
     pagecolor="#808080"
     bordercolor="#000000"
     borderopacity="0.25"
     inkscape:showpageshadow="false"
     inkscape:pageopacity="0.0"
     inkscape:pagecheckerboard="true"
     inkscape:deskcolor="#252525"
     inkscape:document-units="px"
     showgrid="false"
     inkscape:zoom="5.12"
     inkscape:cx="22.265625"
     inkscape:cy="36.328125"
     inkscape:window-width="1920"
     inkscape:window-height="986"
     inkscape:window-x="-11"
     inkscape:window-y="-11"
     inkscape:window-maximized="1"
     inkscape:current-layer="layer1"
     showguides="true"
     inkscape:lockguides="false">
    <inkscape:grid
       id="grid1"
       units="px"
       originx="0"
       originy="0"
       spacingx="1"
       spacingy="1"
       empcolor="#0099e5"
       empopacity="0.30196078"
       color="#0099e5"
       opacity="0.14901961"
       empspacing="4"
       dotted="false"
       gridanglex="30"
       gridanglez="30"
       visible="false" />
    <sodipodi:guide
       position="32,32"
       orientation="0,-1"
       id="guide1"
       inkscape:locked="false" />
    <sodipodi:guide
       position="32,32"
       orientation="1,0"
       id="guide2"
       inkscape:locked="false" />
    <sodipodi:guide
       position="32,63.000001"
       orientation="0,1"
       id="guide3"
       inkscape:locked="false"
       inkscape:color="rgb(153,193,241)" />
    <sodipodi:guide
       position="32,62"
       orientation="0,1"
       id="guide4"
       inkscape:locked="false"
       inkscape:color="rgb(153,193,241)" />
    <sodipodi:guide
       position="32,59.000001"
       orientation="0,1"
       id="guide5"
       inkscape:locked="false"
       inkscape:color="rgb(153,193,241)" />
    <sodipodi:guide
       position="32,1"
       orientation="0,1"
       id="guide6"
       inkscape:locked="false"
       inkscape:color="rgb(153,193,241)" />
    <sodipodi:guide
       position="32,2"
       orientation="0,1"
       id="guide7"
       inkscape:locked="false"
       inkscape:color="rgb(153,193,241)" />
    <sodipodi:guide
       position="32,5.0000001"
       orientation="0,1"
       id="guide8"
       inkscape:locked="false"
       inkscape:color="rgb(153,193,241)" />
    <sodipodi:guide
       position="1,32"
       orientation="-1,0"
       id="guide9"
       inkscape:locked="false"
       inkscape:color="rgb(153,193,241)" />
    <sodipodi:guide
       position="2,32"
       orientation="-1,0"
       id="guide10"
       inkscape:locked="false"
       inkscape:color="rgb(153,193,241)" />
    <sodipodi:guide
       position="5,32"
       orientation="-1,0"
       id="guide11"
       inkscape:locked="false"
       inkscape:color="rgb(153,193,241)" />
    <sodipodi:guide
       position="63,32"
       orientation="-1,0"
       id="guide12"
       inkscape:locked="false"
       inkscape:color="rgb(153,193,241)" />
    <sodipodi:guide
       position="62,32"
       orientation="-1,0"
       id="guide13"
       inkscape:locked="false"
       inkscape:color="rgb(153,193,241)" />
    <sodipodi:guide
       position="59,32"
       orientation="-1,0"
       id="guide14"
       inkscape:locked="false"
       inkscape:color="rgb(153,193,241)" />
    <sodipodi:guide
       position="32,65.4852"
       orientation="0.70710678,-0.70710678"
       id="guide15"
       inkscape:locked="false"
       inkscape:color="rgb(153,193,241)" />
    <sodipodi:guide
       position="32,64.071"
       orientation="0.70710678,-0.70710678"
       id="guide16"
       inkscape:locked="false"
       inkscape:color="rgb(153,193,241)" />
    <sodipodi:guide
       position="32,59.829"
       orientation="0.70710678,-0.70710678"
       id="guide17"
       inkscape:locked="false"
       inkscape:color="rgb(153,193,241)" />
    <sodipodi:guide
       position="32,65.4852"
       orientation="-0.70710678,-0.70710678"
       id="guide18"
       inkscape:locked="false"
       inkscape:color="rgb(153,193,241)" />
    <sodipodi:guide
       position="32,64.071"
       orientation="-0.70710678,-0.70710678"
       id="guide19"
       inkscape:locked="false"
       inkscape:color="rgb(153,193,241)" />
    <sodipodi:guide
       position="32,59.829"
       orientation="-0.70710678,-0.70710678"
       id="guide20"
       inkscape:locked="false"
       inkscape:color="rgb(153,193,241)" />
    <sodipodi:guide
       position="65.4852,32"
       orientation="0.70710678,-0.70710678"
       id="guide21"
       inkscape:locked="false"
       inkscape:color="rgb(153,193,241)" />
    <sodipodi:guide
       position="64.071,32"
       orientation="0.70710678,-0.70710678"
       id="guide22"
       inkscape:locked="false"
       inkscape:color="rgb(153,193,241)" />
    <sodipodi:guide
       position="59.829,32"
       orientation="0.70710678,-0.70710678"
       id="guide23"
       inkscape:locked="false"
       inkscape:color="rgb(153,193,241)" />
    <sodipodi:guide
       position="32,-1.4852"
       orientation="-0.70710678,-0.70710678"
       id="guide24"
       inkscape:locked="false"
       inkscape:color="rgb(153,193,241)" />
    <sodipodi:guide
       position="32,-0.0701"
       orientation="-0.70710678,-0.70710678"
       id="guide25"
       inkscape:locked="false"
       inkscape:color="rgb(153,193,241)" />
    <sodipodi:guide
       position="32,4.171"
       orientation="-0.70710678,-0.70710678"
       id="guide26"
       inkscape:locked="false"
       inkscape:color="rgb(153,193,241)" />
    <sodipodi:guide
       position="22,32"
       orientation="-1,0"
       id="guide27"
       inkscape:locked="false"
       inkscape:color="rgb(153,193,241)" />
    <sodipodi:guide
       position="23,32"
       orientation="-1,0"
       id="guide28"
       inkscape:locked="false"
       inkscape:color="rgb(153,193,241)" />
    <sodipodi:guide
       position="26,32"
       orientation="-1,0"
       id="guide29"
       inkscape:locked="false"
       inkscape:color="rgb(153,193,241)" />
    <sodipodi:guide
       position="42,32"
       orientation="-1,0"
       id="guide30"
       inkscape:locked="false"
       inkscape:color="rgb(153,193,241)" />
    <sodipodi:guide
       position="41,32"
       orientation="-1,0"
       id="guide31"
       inkscape:locked="false"
       inkscape:color="rgb(153,193,241)" />
    <sodipodi:guide
       position="38,32"
       orientation="-1,0"
       id="guide32"
       inkscape:locked="false"
       inkscape:color="rgb(153,193,241)" />
    <sodipodi:guide
       position="42,36.7992"
       orientation="0.70710678,-0.70710678"
       id="guide33"
       inkscape:locked="false"
       inkscape:color="rgb(153,193,241)" />
    <sodipodi:guide
       position="41,34.385"
       orientation="0.70710678,-0.70710678"
       id="guide34"
       inkscape:locked="false"
       inkscape:color="rgb(153,193,241)" />
    <sodipodi:guide
       position="38,27.143"
       orientation="0.70710678,-0.70710678"
       id="guide35"
       inkscape:locked="false"
       inkscape:color="rgb(153,193,241)" />
    <sodipodi:guide
       position="22,36.7992"
       orientation="-0.70710678,-0.70710678"
       id="guide36"
       inkscape:locked="false"
       inkscape:color="rgb(153,193,241)" />
    <sodipodi:guide
       position="23,34.385"
       orientation="-0.70710678,-0.70710678"
       id="guide37"
       inkscape:locked="false"
       inkscape:color="rgb(153,193,241)" />
    <sodipodi:guide
       position="26,27.143"
       orientation="-0.70710678,-0.70710678"
       id="guide38"
       inkscape:locked="false"
       inkscape:color="rgb(153,193,241)" />
  </sodipodi:namedview>
  <defs
     id="defs1">
    <inkscape:path-effect
       effect="fillet_chamfer"
       id="path-effect1"
       is_visible="true"
       lpeversion="1"
       nodesatellites_param="F,0,0,1,0,6,0,1 @ F,0,0,1,0,2.4852,0,1 @ F,0,0,1,0,0,0,1 @ F,0,0,1,0,6,0,1 @ F,0,0,1,0,6,0,1 @ F,0,0,1,0,6,0,1 @ F,0,0,1,0,6,0,1 @ F,0,0,1,0,6,0,1 @ F,0,0,1,0,0,0,1 @ F,0,0,1,0,2.4852,0,1 | F,0,1,1,0,1.6568,0,1 @ F,0,0,1,0,0,0,1 @ F,0,0,1,0,4,0,1 @ F,0,0,1,0,4,0,1 @ F,0,0,1,0,4,0,1 @ F,0,0,1,0,4,0,1 @ F,0,0,1,0,4,0,1 @ F,0,0,1,0,0,0,1 @ F,0,1,1,0,1.6568,0,1 @ F,0,0,1,0,4,0,1"
       radius="4"
       unit="px"
       method="auto"
       mode="F"
       chamfer_steps="1"
       flexible="false"
       use_knot_distance="true"
       apply_no_radius="true"
       apply_with_radius="true"
       only_selected="true"
       hide_knots="false" />
    <inkscape:path-effect
       effect="fillet_chamfer"
       id="path-effect2"
       is_visible="true"
       lpeversion="1"
       nodesatellites_param="F,0,0,1,0,4,0,1 @ F,0,1,1,0,1.657,0,1 @ F,0,0,1,0,0,0,1 @ F,0,0,1,0,4,0,1 @ F,0,0,1,0,4,0,1 @ F,0,0,1,0,4,0,1 @ F,0,0,1,0,4,0,1 @ F,0,0,1,0,4,0,1 @ F,0,0,1,0,0,0,1 @ F,0,1,1,0,1.657,0,1"
       radius="4"
       unit="px"
       method="auto"
       mode="F"
       chamfer_steps="1"
       flexible="false"
       use_knot_distance="true"
       apply_no_radius="true"
       apply_with_radius="true"
       only_selected="true"
       hide_knots="false" />
    <inkscape:path-effect
       effect="fillet_chamfer"
       id="path-effect3"
       is_visible="true"
       lpeversion="1"
       nodesatellites_param="F,0,0,1,0,5,0,1 @ F,0,1,1,0,2.0711328,0,1 @ F,0,0,1,0,0,0,1 @ F,0,0,1,0,5,0,1 @ F,0,0,1,0,5,0,1 @ F,0,0,1,0,5,0,1 @ F,0,0,1,0,5,0,1 @ F,0,0,1,0,5,0,1 @ F,0,0,1,0,0,0,1 @ F,0,1,1,0,2.0711328,0,1 | F,0,0,1,0,0.829,0,1 @ F,0,0,1,0,0,0,1 @ F,0,0,1,0,2,0,1 @ F,0,0,1,0,2,0,1 @ F,0,0,1,0,2,0,1 @ F,0,0,1,0,2,0,1 @ F,0,0,1,0,2,0,1 @ F,0,0,1,0,0,0,1 @ F,0,0,1,0,0.829,0,1 @ F,0,0,1,0,2,0,1"
       radius="5"
       unit="px"
       method="auto"
       mode="F"
       chamfer_steps="1"
       flexible="false"
       use_knot_distance="true"
       apply_no_radius="true"
       apply_with_radius="true"
       only_selected="true"
       hide_knots="false" />
  </defs>
  <g
     inkscape:label="Arrow Template"
     inkscape:groupmode="layer"
     id="layer1"
     style="display:inline"
     inkscape:highlight-color="#47a4d7">
    <g
       id="g1"
       inkscape:label="Arrow Group">
      <path
         style="fill:#000000;fill-opacity:0.25;stroke-width:16;stroke-miterlimit:2"
         d="m 36.242641,2.7574407 4.000057,4.0000575 A 5.9998035,5.9998035 67.5 0 1 42,11 v 16.2008 l 5.100359,-5.100359 a 6,6 0 0 1 8.485282,0 l 5.656918,5.656918 a 6,6 90 0 1 0,8.485282 L 36.242641,61.242559 a 6,6 0 0 1 -8.485282,0 L 2.7574407,36.242641 a 6,6 90 0 1 0,-8.485282 l 5.6569186,-5.656918 a 6,6 0 0 1 8.4852817,0 L 22,27.2008 V 11 a 5.9998035,5.9998035 112.5 0 1 1.757302,-4.2425018 l 4.000057,-4.0000575 a 6,6 0 0 1 8.485282,0 z M 24,11 v 21.0292 l -8.514573,-8.514573 a 4,4 0 0 0 -5.6568541,0 l -5.6569458,5.656946 a 4,4 90 0 0 0,5.656854 L 29.171573,59.828373 a 4,4 0 0 0 5.656854,0 L 59.828373,34.828427 a 4,4 90 0 0 0,-5.656854 l -5.656946,-5.656946 a 4,4 0 0 0 -5.656854,0 L 40,32.0292 V 11 A 3.999869,3.999869 67.5 0 0 38.828465,8.1716655 L 34.828427,4.1716271 a 4,4 0 0 0 -5.656854,0 L 25.171535,8.1716655 A 3.999869,3.999869 112.5 0 0 24,11 Z"
         id="path1"
         sodipodi:nodetypes="cccccccccccccccccccccc"
         inkscape:path-effect="#path-effect1"
         inkscape:original-d="m 32,-1.4852 10,10 v 18.686 L 51.343,17.8578 65.4852,32 32,65.4852 -1.4852,32 12.657,17.8578 22,27.2008 V 8.5148 Z M 24,9.3432 v 22.686 L 12.657,20.6862 1.3432,32 32,62.6568 62.6568,32 51.343,20.6862 40,32.0292 V 9.3432 l -8,-8 z"
         inkscape:label="Shadow" />
      <path
         style="fill:#ffffff;fill-opacity:1;stroke-width:16;stroke-miterlimit:2"
         d="m 34.828427,4.1714271 3.999897,3.999897 A 4.0003519,4.0003519 67.5 0 1 40,11 v 21.029 l 8.514573,-8.514573 a 4,4 0 0 1 5.656854,0 l 5.657146,5.657146 a 4,4 90 0 1 0,5.656854 L 34.828427,59.828573 a 4,4 0 0 1 -5.656854,0 L 4.1714271,34.828427 a 4,4 90 0 1 0,-5.656854 l 5.6571458,-5.657146 a 4,4 0 0 1 5.6568541,0 L 24,32.029 V 11 a 4.0003519,4.0003519 112.5 0 1 1.171676,-2.8286759 l 3.999897,-3.999897 a 4,4 0 0 1 5.656854,0 z"
         id="path2"
         inkscape:label="Fill"
         inkscape:original-d="m 32,1.343 8,8 V 32.029 L 51.343,20.686 62.657,32 32,62.657 1.343,32 12.657,20.686 24,32.029 V 9.343 Z"
         inkscape:path-effect="#path-effect2" />
      <path
         style="fill:#000000;fill-opacity:1;stroke-width:16;stroke-miterlimit:2"
         d="M 35.535534,3.4645339 39.535488,7.464488 A 5.0001569,5.0001569 67.5 0 1 41,11.000133 V 29.615 l 6.807466,-6.807466 a 5,5 0 0 1 7.071068,0 l 5.656932,5.656932 a 5,5 90 0 1 0,7.071068 L 35.535534,60.535466 a 5,5 180 0 1 -7.071068,0 L 3.4645339,35.535534 a 5,5 90 0 1 0,-7.071068 l 5.6569322,-5.656932 a 5,5 0 0 1 7.0710679,0 L 23,29.615 V 11.000133 a 5.0001569,5.0001569 112.5 0 1 1.464512,-3.535645 l 3.999954,-3.9999541 a 5,5 0 0 1 7.071068,0 z M 26,11 V 36.857 L 14.071214,24.928214 a 2,2 0 0 0 -2.828428,0 l -5.6575724,5.657572 a 2,2 90 0 0 0,2.828428 L 30.585786,58.414786 a 2,2 0 0 0 2.828428,0 L 58.414786,33.414214 a 2,2 90 0 0 0,-2.828428 l -5.657572,-5.657572 a 2,2 0 0 0 -2.828428,0 L 38,36.857 V 11 A 2.001383,2.001383 67.5 0 0 37.413808,9.5848085 L 33.414214,5.5852136 a 2,2 0 0 0 -2.828428,0 L 26.586192,9.5848085 A 2.001383,2.001383 112.5 0 0 26,11 Z"
         id="path3"
         sodipodi:nodetypes="cccccccccccccccccccccc"
         inkscape:label="Outline"
         inkscape:original-d="m 32,-0.071 9,9 V 29.615 L 51.343,19.272 64.071,32 32,64.071 -0.071,32 12.657,19.272 23,29.615 V 8.929 Z M 26,10.171 V 36.857 L 12.657,23.514 4.171,32 32,59.829 59.829,32 51.343,23.514 38,36.857 V 10.171 l -6,-6 z"
         inkscape:path-effect="#path-effect3" />
    </g>
  </g>
</svg>
