<?xml version="1.0" encoding="UTF-8" standalone="no"?>
<!-- Created with Inkscape (http://www.inkscape.org/) -->

<svg
   width="64"
   height="64"
   viewBox="0 0 64 64.000003"
   version="1.1"
   id="svg1"
   xmlns="http://www.w3.org/2000/svg"
   xmlns:svg="http://www.w3.org/2000/svg">
  <defs
     id="defs1" />
  <g
     id="layer1"
     style="display:inline">
    <g
       id="g1">
      <path
         style="fill:#000000;fill-opacity:0.25;stroke-width:16;stroke-miterlimit:2"
         d="m 36.242641,2.7574407 4.000057,4.0000575 A 5.9998035,5.9998035 67.5 0 1 42,11 v 16.2008 l 5.100359,-5.100359 a 6,6 0 0 1 8.485282,0 l 5.656918,5.656918 a 6,6 90 0 1 0,8.485282 L 36.242641,61.242559 a 6,6 0 0 1 -8.485282,0 L 2.7574407,36.242641 a 6,6 90 0 1 0,-8.485282 l 5.6569186,-5.656918 a 6,6 0 0 1 8.4852817,0 L 22,27.2008 V 11 a 5.9998035,5.9998035 112.5 0 1 1.757302,-4.2425018 l 4.000057,-4.0000575 a 6,6 0 0 1 8.485282,0 z M 24,11 v 21.0292 l -8.514573,-8.514573 a 4,4 0 0 0 -5.6568541,0 l -5.6569458,5.656946 a 4,4 90 0 0 0,5.656854 L 29.171573,59.828373 a 4,4 0 0 0 5.656854,0 L 59.828373,34.828427 a 4,4 90 0 0 0,-5.656854 l -5.656946,-5.656946 a 4,4 0 0 0 -5.656854,0 L 40,32.0292 V 11 A 3.999869,3.999869 67.5 0 0 38.828465,8.1716655 L 34.828427,4.1716271 a 4,4 0 0 0 -5.656854,0 L 25.171535,8.1716655 A 3.999869,3.999869 112.5 0 0 24,11 Z"
         id="path1" />
      <path
         style="fill:#ffffff;fill-opacity:1;stroke-width:16;stroke-miterlimit:2"
         d="m 34.828427,4.1714271 3.999897,3.999897 A 4.0003519,4.0003519 67.5 0 1 40,11 v 21.029 l 8.514573,-8.514573 a 4,4 0 0 1 5.656854,0 l 5.657146,5.657146 a 4,4 90 0 1 0,5.656854 L 34.828427,59.828573 a 4,4 0 0 1 -5.656854,0 L 4.1714271,34.828427 a 4,4 90 0 1 0,-5.656854 l 5.6571458,-5.657146 a 4,4 0 0 1 5.6568541,0 L 24,32.029 V 11 a 4.0003519,4.0003519 112.5 0 1 1.171676,-2.8286759 l 3.999897,-3.999897 a 4,4 0 0 1 5.656854,0 z"
         id="path2" />
      <path
         style="fill:#000000;fill-opacity:1;stroke-width:16;stroke-miterlimit:2"
         d="M 35.535534,3.4645339 39.535488,7.464488 A 5.0001569,5.0001569 67.5 0 1 41,11.000133 V 29.615 l 6.807466,-6.807466 a 5,5 0 0 1 7.071068,0 l 5.656932,5.656932 a 5,5 90 0 1 0,7.071068 L 35.535534,60.535466 a 5,5 180 0 1 -7.071068,0 L 3.4645339,35.535534 a 5,5 90 0 1 0,-7.071068 l 5.6569322,-5.656932 a 5,5 0 0 1 7.0710679,0 L 23,29.615 V 11.000133 a 5.0001569,5.0001569 112.5 0 1 1.464512,-3.535645 l 3.999954,-3.9999541 a 5,5 0 0 1 7.071068,0 z M 26,11 V 36.857 L 14.071214,24.928214 a 2,2 0 0 0 -2.828428,0 l -5.6575724,5.657572 a 2,2 90 0 0 0,2.828428 L 30.585786,58.414786 a 2,2 0 0 0 2.828428,0 L 58.414786,33.414214 a 2,2 90 0 0 0,-2.828428 l -5.657572,-5.657572 a 2,2 0 0 0 -2.828428,0 L 38,36.857 V 11 A 2.001383,2.001383 67.5 0 0 37.413808,9.5848085 L 33.414214,5.5852136 a 2,2 0 0 0 -2.828428,0 L 26.586192,9.5848085 A 2.001383,2.001383 112.5 0 0 26,11 Z"
         id="path3" />
    </g>
  </g>
</svg>
