<?xml version="1.0" encoding="UTF-8" standalone="no"?>
<!-- Created with Inkscape (http://www.inkscape.org/) -->

<svg
   width="64"
   height="64"
   viewBox="0 0 64 64"
   version="1.1"
   id="svg1"
   xmlns:xlink="http://www.w3.org/1999/xlink"
   xmlns="http://www.w3.org/2000/svg"
   xmlns:svg="http://www.w3.org/2000/svg">
  <defs
     id="defs1">
    <linearGradient
       id="linearGradient2">
      <stop
         style="stop-color:#808080;stop-opacity:1;"
         offset="0"
         id="stop3" />
      <stop
         style="stop-color:#000000;stop-opacity:1;"
         offset="1"
         id="stop4" />
    </linearGradient>
    <linearGradient
       id="linearGradient1">
      <stop
         style="stop-color:#ffffff;stop-opacity:1;"
         offset="0"
         id="stop1" />
      <stop
         style="stop-color:#808080;stop-opacity:1;"
         offset="1"
         id="stop2" />
    </linearGradient>
    <radialGradient
       xlink:href="#linearGradient1"
       id="radialGradient2"
       cx="32"
       cy="59"
       fx="32"
       fy="59"
       r="54"
       gradientUnits="userSpaceOnUse" />
    <radialGradient
       xlink:href="#linearGradient2"
       id="radialGradient4"
       cx="32"
       cy="59"
       fx="32"
       fy="59"
       r="54"
       gradientUnits="userSpaceOnUse" />
  </defs>
  <g
     id="Shadow"
     style="display:inline">
    <path
       style="display:inline;fill:#000000;fill-opacity:0.25;stroke-width:16;stroke-miterlimit:2"
       d="m 36.242641,2.7573593 4,4 A 6.0000001,6.0000001 67.5 0 1 42,11 v 16.20101 l 5.100505,-5.100505 a 6,6 0 0 1 8.485281,0 l 5.656855,5.656854 a 6,6 90 0 1 0,8.485282 l -25,25 a 6,6 180 0 1 -8.485282,0 l -24.9999997,-25 a 6,6 90 0 1 0,-8.485282 l 5.6568543,-5.656854 a 6,6 0 0 1 8.4852814,0 L 22,27.20101 V 11 a 6.0000001,6.0000001 112.5 0 1 1.757359,-4.2426407 l 4,-4 a 6,6 0 0 1 8.485282,0 z M 24,11 v 21.029437 l -8.514719,-8.514718 a 4,4 180 0 0 -5.6568539,0 l -5.6568542,5.656854 a 4,4 90 0 0 0,5.656854 l 25.0000001,25 a 4,4 0 0 0 5.656854,0 l 25,-25 a 4,4 90 0 0 0,-5.656854 l -5.656854,-5.656854 a 4,4 0 0 0 -5.656854,0 L 40,32.029437 V 11 A 3.9999999,3.9999999 67.5 0 0 38.828427,8.1715729 l -4,-4 a 4,4 0 0 0 -5.656854,0 l -4,4 A 3.9999999,3.9999999 112.5 0 0 24,11 Z"
       id="Shadow Path" />
  </g>
  <g
     id="Fill"
     style="display:inline">
    <path
       style="fill:url(#radialGradient2);fill-opacity:1;stroke-width:16;stroke-miterlimit:2"
       d="m 34.828427,4.1715729 4,4 A 3.9999999,3.9999999 67.5 0 1 40,11 v 21.029437 l 8.514719,-8.514718 a 4,4 0 0 1 5.656854,0 l 5.656854,5.656854 a 4,4 90 0 1 0,5.656854 l -25,25 a 4,4 180 0 1 -5.656854,0 l -25.0000001,-25 a 4,4 90 0 1 0,-5.656854 l 5.6568542,-5.656854 a 4,4 180 0 1 5.6568539,0 L 24,32.029437 V 11 a 3.9999999,3.9999999 112.5 0 1 1.171573,-2.8284271 l 4,-4 a 4,4 0 0 1 5.656854,0 z"
       id="Fill Path" />
  </g>
  <g
     id="Outline"
     style="display:inline">
    <path
       style="display:inline;fill:url(#radialGradient4);fill-opacity:1;stroke-width:16;stroke-miterlimit:2"
       d="m 35.535534,3.4644661 4,4 A 5,5 67.5 0 1 41,11 l 0,18.615224 6.807612,-6.807612 a 5,5 180 0 1 7.071068,0 l 5.656854,5.656854 a 5,5 90 0 1 0,7.071068 l -25,25 a 5,5 0 0 1 -7.071068,0 l -24.9999999,-25 a 5,5 90 0 1 0,-7.071068 l 5.6568542,-5.656854 a 5,5 0 0 1 7.0710677,0 L 23,29.615224 V 11 a 5,5 112.5 0 1 1.464466,-3.5355339 l 4,-4 a 5,5 0 0 1 7.071068,0 z M 26,11 V 36.857864 L 14.071068,24.928932 a 2,2 0 0 0 -2.828427,0 l -5.6568546,5.656854 a 2,2 90 0 0 0,2.828428 l 24.9999996,25 a 2,2 0 0 0 2.828428,0 l 25,-25 a 2,2 90 0 0 0,-2.828428 l -5.656855,-5.656854 a 2,2 0 0 0 -2.828427,0 L 38,36.857864 V 11 A 2,2 67.5 0 0 37.414214,9.5857864 l -4,-4 a 2,2 0 0 0 -2.828428,0 l -4,4 A 2,2 112.5 0 0 26,11 Z"
       id="Outline Path" />
  </g>
</svg>
