<?xml version="1.0" encoding="UTF-8" standalone="no"?>
<!-- Created with Inkscape (http://www.inkscape.org/) -->

<svg
   width="64"
   height="64"
   viewBox="0 0 64 64"
   version="1.1"
   id="svg1"
   xmlns:xlink="http://www.w3.org/1999/xlink"
   xmlns="http://www.w3.org/2000/svg"
   xmlns:svg="http://www.w3.org/2000/svg">
  <defs
     id="defs1">
    <linearGradient
       id="linearGradient2">
      <stop
         style="stop-color:#7f7f7f;stop-opacity:1;"
         offset="0"
         id="stop3" />
      <stop
         style="stop-color:#000000;stop-opacity:1;"
         offset="1"
         id="stop4" />
    </linearGradient>
    <linearGradient
       id="linearGradient1">
      <stop
         style="stop-color:#ffffff;stop-opacity:1;"
         offset="0"
         id="stop1" />
      <stop
         style="stop-color:#808080;stop-opacity:1;"
         offset="1"
         id="stop2" />
    </linearGradient>
    <radialGradient
       xlink:href="#linearGradient1"
       id="radialGradient2"
       cx="32"
       cy="51.6775"
       fx="32"
       fy="51.6775"
       r="39.355"
       gradientUnits="userSpaceOnUse" />
    <radialGradient
       xlink:href="#linearGradient2"
       id="radialGradient4"
       cx="32"
       cy="51.6775"
       fx="32"
       fy="51.6775"
       r="39.355"
       gradientUnits="userSpaceOnUse" />
  </defs>
  <g
     id="layer1">
    <path
       style="fill:#000000;fill-opacity:0.25;stroke-width:16;stroke-miterlimit:2"
       d="m 36.242641,10.079641 17.677718,17.677718 a 6,6 90 0 1 0,8.485282 L 36.242641,53.920359 a 6,6 0 0 1 -8.485282,0 L 10.079641,36.242641 a 6,6 90 0 1 0,-8.485282 L 27.757359,10.079641 a 6,6 0 0 1 8.485282,0 z M 11.494027,34.828427 29.171573,52.505973 a 4,4 0 0 0 5.656854,0 L 52.505973,34.828427 a 4,4 90 0 0 0,-5.656854 L 34.828427,11.494027 a 4,4 0 0 0 -5.656854,0 L 11.494027,29.171573 a 4,4 90 0 0 0,5.656854 z"
       id="Shadow" />
    <path
       style="fill:url(#radialGradient2);fill-opacity:1;stroke-width:16;stroke-miterlimit:2"
       d="m 34.828427,11.494027 17.677546,17.677546 a 4,4 90 0 1 0,5.656854 L 34.828427,52.505973 a 4,4 0 0 1 -5.656854,0 L 11.494027,34.828427 a 4,4 90 0 1 0,-5.656854 L 29.171573,11.494027 a 4,4 0 0 1 5.656854,0 z"
       id="Fill" />
    <path
       style="fill:url(#radialGradient4);fill-opacity:1;stroke-width:16;stroke-miterlimit:2"
       d="m 35.535534,10.787034 17.677432,17.677432 a 5,5 90 0 1 0,7.071068 L 35.535534,53.212966 a 5,5 0 0 1 -7.071068,0 L 10.787034,35.535534 a 5,5 90 0 1 0,-7.071068 L 28.464466,10.787034 a 5,5 0 0 1 7.071068,0 z m -22.62732,22.62718 17.677572,17.677572 a 2,2 0 0 0 2.828428,0 L 51.091786,33.414214 a 2,2 90 0 0 0,-2.828428 L 33.414214,12.908214 a 2,2 0 0 0 -2.828428,0 L 12.908214,30.585786 a 2,2 90 0 0 0,2.828428 z"
       id="Outline" />
  </g>
</svg>
